<svg width="181" height="251" viewBox="0 0 181 251" fill="none" xmlns="http://www.w3.org/2000/svg">
<path d="M47.9219 139.456C61.7701 127.898 87.451 123.074 113.088 125.348C125.641 126.461 137.485 129.232 146.988 133.261C156.687 137.372 162.934 142.354 165.788 147.221C168.916 152.556 170.785 161.157 171.302 172.215C171.809 183.023 170.988 195.09 169.613 206.532C168.242 217.934 166.349 228.489 164.794 236.206C164.373 238.298 163.977 240.177 163.624 241.803H48.6169C47.9115 239.607 47.064 236.869 46.1484 233.706C43.6299 225.003 40.6303 213.192 38.6395 200.62C36.6364 187.969 35.7276 174.987 37.1299 163.789C38.5464 152.48 42.1448 144.277 47.9219 139.456Z" stroke="#5B5B5B" stroke-width="18"/>
<path d="M81.3047 82.8143C83.9441 80.9884 87.9469 79.5252 92.966 78.6595C97.9126 77.8062 103.459 77.6001 108.862 77.9973C114.278 78.3954 119.34 79.3842 123.348 80.7925C127.566 82.2747 129.753 83.9177 130.533 85.0193C131.425 86.2801 132.179 88.6947 132.392 92.4641C132.597 96.0827 132.267 100.223 131.681 104.263C131.1 108.271 130.295 111.997 129.629 114.732C129.624 114.756 129.618 114.779 129.612 114.803H81.9745C81.8288 114.404 81.6762 113.978 81.5188 113.527C80.4471 110.458 79.1849 106.331 78.3525 101.973C77.5083 97.5544 77.1771 93.2553 77.7127 89.7106C78.2404 86.2182 79.4941 84.0668 81.3047 82.8143Z" stroke="#5B5B5B" stroke-width="12"/>
<rect x="48" y="27" width="11" height="19" stroke="#5B5B5B" stroke-width="8"/>
<rect x="6.76758" y="7.04297" width="8.95997" height="32.5179" rx="3" transform="rotate(-51.8207 6.76758 7.04297)" fill="#5B5B5B"/>
<rect x="11.752" y="72.2598" width="8.95997" height="32.5179" rx="3" transform="rotate(-126.258 11.752 72.2598)" fill="#5B5B5B"/>
<rect y="40.748" width="8.95997" height="36.9707" rx="3" transform="rotate(-89.8081 0 40.748)" fill="#5B5B5B"/>
<path d="M115.096 17.4019C124.443 17.2054 133.62 17.0738 140.956 17.0902C139.47 18.6452 138.014 20.3569 136.667 22.2174C130.616 30.5801 126.499 42.5002 132.775 56.266C132.994 56.7458 133.089 57.0599 133.127 57.2489C132.831 57.4879 132.016 58.0219 130.141 58.5527C125.206 59.9498 117.147 60.1827 107.93 59.6374C98.9243 59.1046 89.5415 57.8837 82.3631 56.7843C79.5815 56.3584 77.1455 55.9529 75.2089 55.6168L75.0336 18.5214C77.3696 18.4428 80.3143 18.3461 83.6893 18.2403C92.3403 17.9693 103.809 17.6391 115.096 17.4019ZM133.141 57.4849C133.135 57.4814 133.131 57.4421 133.147 57.3776C133.154 57.4561 133.147 57.4884 133.141 57.4849Z" stroke="#5B5B5B" stroke-width="12"/>
</svg>
