<svg width="266" height="209" viewBox="0 0 266 209" fill="none" xmlns="http://www.w3.org/2000/svg">
<circle cx="123.709" cy="25.393" r="25.393" fill="#5B5B5B"/>
<path d="M179.11 138.5C180.051 138.753 186.162 142.158 186.162 142.158C186.162 142.158 188.053 143.651 188.939 144.542C190.065 145.675 191 146.936 192.001 148.149C193.051 149.422 194.307 150.656 195.243 151.986C198.807 157.048 203.294 161.704 206.321 167.048C206.957 168.169 207.334 169.534 207.852 170.712C208.489 172.16 209.213 173.582 209.879 175.02C211.012 177.466 212.649 179.817 214.134 182.119C215.676 184.507 217.899 184.699 220.912 184.699H225.19L230.661 184.047L237.844 183.318L240.377 182.627L242.91 181.936C244.876 181.484 248.764 180.728 248.764 180.728C250.135 180.366 251.64 180.561 253.02 180.718C254.499 180.886 255.888 181.942 257.298 182.263C258.412 182.516 259.612 183.512 260.473 184.22C261.554 185.108 262.038 186.325 261.801 187.596C261.54 188.999 260.946 190.791 260.337 192.124C260.041 192.775 260.059 193.359 259.617 194.005C259.185 194.635 258.517 195.116 257.996 195.683C256.73 197.061 255.568 197.885 253.853 198.859C252.986 199.351 252.255 199.969 251.286 200.327C250.01 200.798 248.653 201.019 247.334 201.372C244.333 202.176 241.374 202.54 238.249 202.869C232.668 203.455 227.055 203.338 221.497 204.078C217.216 204.648 212.802 205.075 208.46 205.075C206.033 205.075 203.075 205.609 201.548 203.598C200.169 201.782 198.511 200.071 196.988 198.341C194.785 195.837 192.721 193.198 191.078 190.398L189 187L187.5 185L185.5 182L183.5 179.5L180 174.5C180 174.5 172.44 163.46 171.5 163" stroke="#5B5B5B" stroke-width="7" stroke-linecap="round"/>
<path d="M181.698 122.139C179.754 123.666 176.739 124.926 171.735 124.307C165.273 123.506 155.369 119.544 140.533 108.434C128.998 98.4137 125.36 88.9618 124.895 81.7566C124.471 75.1682 126.664 70.1923 128.439 67.8264C129.421 68.7552 130.718 70.4888 132.334 73.0855C133.73 75.3299 135.181 77.9047 136.727 80.6497C137.121 81.3494 137.522 82.0603 137.929 82.7795C139.897 86.2542 142.006 89.886 144.186 93.031C146.484 96.3466 150.664 99.7657 155 102.928C158.469 105.458 162.382 108.061 166.112 110.541C167.155 111.235 168.184 111.92 169.185 112.59C173.88 115.736 177.874 118.525 180.371 120.806C180.957 121.341 181.388 121.785 181.698 122.139ZM127.728 67.2703C127.728 67.2703 127.73 67.2708 127.732 67.272C127.73 67.271 127.728 67.2704 127.728 67.2703ZM182.363 123.05C182.366 123.057 182.367 123.061 182.367 123.061C182.367 123.061 182.365 123.057 182.363 123.05Z" stroke="#5B5B5B" stroke-width="8"/>
<circle cx="218.243" cy="127.491" r="25.393" fill="#5B5B5B"/>
<path d="M121.899 68.0214L109.651 121.853L77.9927 123.524L89.705 65.7351C90.7069 65.5534 91.8453 65.3587 93.0674 65.1703C97.4731 64.4913 102.455 63.9773 106.065 64.2316C109.877 64.5001 115.014 65.8266 119.526 67.2481C120.362 67.5113 121.158 67.772 121.899 68.0214Z" stroke="#5B5B5B" stroke-width="13"/>
<path d="M5.68094 173.428V151.724L172.174 140.351L168.222 167.204L5.68094 173.428Z" stroke="#5B5B5B" stroke-width="11"/>
<path d="M8.29504 197.459H178.727C179.6 197.459 180.347 198.087 180.496 198.947C180.686 200.045 179.841 201.049 178.727 201.049H8.29506C7.30367 201.049 6.5 200.245 6.5 199.254C6.5 198.263 7.30367 197.459 8.29504 197.459Z" stroke="#5B5B5B" stroke-width="13"/>
</svg>
