<svg width="307" height="284" viewBox="0 0 307 284" fill="none" xmlns="http://www.w3.org/2000/svg">
<path d="M116.696 135.276C113.56 135.276 110.181 135.651 107.141 134.866C103.731 133.986 99.2464 133.68 96.949 130.726C94.7109 127.848 93.6345 124.839 92.581 121.444C91.7393 118.732 90.4425 115.513 90.4425 112.662C90.4425 110.237 91.0098 107.656 92.854 105.997C93.7763 105.166 90.8142 104.975 90.5335 104.882C89.2182 104.443 87.5421 102.612 86.575 101.697C79.8828 95.3665 75.291 87.5147 75.291 78.1734C75.291 70.416 76.9049 64.0926 82.48 58.5175C84.5343 56.4632 88.006 54.8604 90.761 53.8765C91.7549 53.5215 93.848 53.4924 93.127 51.9655C92.3074 50.2298 91.4225 48.4614 90.943 46.5965C89.7105 41.8037 87.6511 36.448 90.397 31.7408L93.218 25.3936C94.4186 23.3925 96.423 22.1021 98.5415 21.2076C102.337 19.6048 107.243 18.1741 111.304 20.0018C114.349 21.3719 116.802 24.0013 119.062 26.3718C120.191 27.5563 121.17 29.202 121.769 30.7171C121.874 30.9829 123.247 34.5402 123.612 33.902C125.525 30.5548 122.744 24.5599 120.836 21.8446C119.403 19.8048 117.879 17.572 117.879 15.1106C117.879 11.7476 121.217 9.16238 124.112 7.60311C132.202 3.24723 140.275 8.70554 146.953 12.8356L150.639 15.9296L153.011 19.6858C153.011 19.6858 155.105 25.1249 155.553 27.2591C156.544 31.9812 155.962 37.2055 155.962 42.001C155.962 52.893 155.692 63.7836 155.121 74.6472C154.717 82.3061 155.121 91.0232 155.121 98.6858C155.121 106.026 155.243 112.835 155.121 120.186C155.027 125.816 153.462 132.245 152.011 137.686C151.262 140.493 151.954 145.017 149.82 147.151C149.089 147.882 147.272 148.38 147.272 148.38C147.272 148.38 142.87 149.641 140.583 149.927C132.962 150.879 121.215 148.258 115.922 142.26C114.731 140.91 111.871 137.65 113.147 135.594L116.696 135.276ZM116.696 135.276C120.511 133.186 130.011 129.081 130.011 129.081L134.031 128.314C134.815 128.314 134.616 128.698 133.781 128.656C129.862 128.455 126.744 130.303 123.011 132.186C120.867 133.267 116.696 135.276 116.696 135.276Z" stroke="#5B5B5B" stroke-width="11" stroke-linecap="round"/>
<path d="M122.445 71.9827C118.655 71.9206 114.932 72.8345 111.737 74.9479C110.952 75.4674 110.335 76.2679 109.912 77.1032C108.911 79.0776 108.854 80.8353 108.854 83.0061C108.854 84.6137 108.862 86.1204 109.356 87.6667C109.774 88.9783 110.269 90.267 110.708 91.5723C110.95 92.2937 111.141 93.1729 111.696 93.7275" stroke="#5B5B5B" stroke-width="11" stroke-linecap="round"/>
<path d="M195.947 135.276C199.083 135.276 202.462 135.651 205.502 134.866C208.911 133.986 213.396 133.68 215.694 130.726C217.932 127.848 219.008 124.839 220.062 121.444C220.903 118.732 222.2 115.513 222.2 112.662C222.2 110.237 221.633 107.656 219.789 105.997C218.866 105.166 221.828 104.975 222.109 104.882C223.424 104.443 225.101 102.612 226.068 101.697C232.76 95.3665 237.352 87.5147 237.352 78.1734C237.352 70.416 235.738 64.0926 230.163 58.5175C228.108 56.4632 224.637 54.8604 221.882 53.8765C220.888 53.5215 218.795 53.4924 219.516 51.9655C220.335 50.2298 221.22 48.4614 221.7 46.5965C222.932 41.8037 224.991 36.448 222.246 31.7408L219.425 25.3936C218.224 23.3925 216.22 22.1021 214.101 21.2076C210.305 19.6048 205.4 18.1741 201.338 20.0018C198.294 21.3719 195.841 24.0013 193.581 26.3718C192.451 27.5563 191.472 29.202 190.873 30.7171C190.768 30.9829 189.395 34.5402 189.031 33.902C187.118 30.5548 189.898 24.5599 191.806 21.8446C193.24 19.8048 194.764 17.572 194.764 15.1106C194.764 11.7476 191.426 9.16238 188.53 7.60311C180.441 3.24723 172.368 8.70554 165.689 12.8356L162.004 15.9296L159.632 19.6858C159.632 19.6858 157.538 25.1249 157.09 27.2591C156.099 31.9812 156.68 37.2055 156.68 42.001C156.68 52.893 156.95 63.7836 157.522 74.6472C157.925 82.3061 157.522 91.0232 157.522 98.6858C157.522 106.026 157.4 112.835 157.522 120.186C157.616 125.816 159.181 132.245 160.632 137.686C161.381 140.493 160.688 145.017 162.823 147.151C163.554 147.882 165.371 148.38 165.371 148.38C165.371 148.38 169.773 149.641 172.059 149.927C179.681 150.879 191.428 148.258 196.72 142.26C197.911 140.91 200.772 137.65 199.496 135.594L195.947 135.276ZM195.947 135.276C192.132 133.186 182.632 129.081 182.632 129.081L178.611 128.314C177.827 128.314 178.026 128.698 178.861 128.656C182.78 128.455 185.899 130.303 189.632 132.186C191.775 133.267 195.947 135.276 195.947 135.276Z" stroke="#5B5B5B" stroke-width="11" stroke-linecap="round"/>
<path d="M190.198 71.9827C193.988 71.9206 197.711 72.8345 200.905 74.9479C201.69 75.4674 202.308 76.2679 202.731 77.1032C203.731 79.0776 203.788 80.8353 203.788 83.0061C203.788 84.6137 203.781 86.1204 203.287 87.6667C202.868 88.9783 202.374 90.267 201.935 91.5723C201.692 92.2937 201.501 93.1729 200.946 93.7275" stroke="#5B5B5B" stroke-width="11" stroke-linecap="round"/>
<path d="M66.633 227.131C66.633 244.318 66.3569 261.265 69.1554 278.351H89.5107C89.5107 278.351 99.1799 278.534 101.011 275.686C104.324 270.532 103.011 258.516 103.011 252.186C103.011 233.686 103.489 215.07 103.208 196.862C103.141 192.488 102.442 187.97 101.511 183.686C101.511 183.686 99.4546 175.795 97.8132 173.109C95.5242 169.363 89.3977 166.803 86.0107 164.186C81.0107 161.686 74.5107 152.686 74.5107 152.686C74.5107 152.686 67.9018 145.024 64.4258 139.617C61.6386 135.281 58.6815 130.989 55.7725 126.514C53.2361 122.612 49.6065 119.694 49.6065 114.707V102.186C49.6065 96.6359 49.0107 92.1116 49.0107 86.6858C48.4974 83.2209 48.5107 76.1858 48.5107 76.1858C48.0301 74.2633 45.1922 70.88 45.1922 70.88C45.1922 70.88 39.5453 68.3576 36.679 68.3576C34.5726 68.3576 33.2106 78.8336 33.2106 80.8297C33.2106 92.1725 33.6667 104.409 30.1977 115.163C28.891 119.214 29.4269 118.024 29.4269 114.532V106.895V89.9385C29.4269 78.6264 28.7963 67.3805 28.7963 56.0957C28.7963 51.0146 29.3263 43.1331 22.4902 43.1331C21.054 43.1331 17.5188 42.4045 16.3242 43.2733C14.4804 44.6143 13.9863 45.5535 12.6807 47.2321C8.39117 52.7473 6.09433 60.661 6.09433 67.5868V128.546C6.09433 135.153 5.68098 141.892 6.58481 148.445C7.44873 154.709 8.80888 160.545 10.1933 166.698C12.2662 175.911 16.2949 186.127 23.8916 192.238C32.4115 199.091 42.2854 203.89 50.8677 210.595C55.9971 214.603 66.633 219.797 66.633 227.131Z" stroke="#5B5B5B" stroke-width="11" stroke-linecap="round"/>
<path d="M77.5107 190.686C69.0643 176.952 57.1832 169.411 45.5725 158.175C43.8091 156.469 41.8635 155.084 40.0349 153.477C38.2683 151.925 36.0303 150.754 34.404 149.091C31.4676 146.088 31.5108 142.588 31.5108 138.669C31.5108 135.523 32.251 131.175 36.0528 130.736C39.0486 130.39 41.6459 131.881 43.9703 133.614C47.333 136.12 50.7932 138.786 53.8789 141.625C57.4419 144.902 64.0107 151.686 64.0107 151.686L83.5107 162.686" stroke="#5B5B5B" stroke-width="11" stroke-linecap="round"/>
<path d="M240.175 227.131C240.175 244.318 240.451 261.265 237.652 278.351H217.297C217.297 278.351 207.628 278.534 205.797 275.686C202.484 270.532 203.797 258.516 203.797 252.186C203.797 233.686 203.319 215.07 203.599 196.862C203.666 192.488 204.366 187.97 205.297 183.686C205.297 183.686 207.353 175.795 208.994 173.109C211.283 169.363 217.41 166.803 220.797 164.186C225.797 161.686 232.297 152.686 232.297 152.686C232.297 152.686 238.906 145.024 242.382 139.617C245.169 135.281 248.126 130.989 251.035 126.514C253.572 122.612 257.201 119.694 257.201 114.707V102.186C257.201 96.6359 257.797 92.1116 257.797 86.6858C258.31 83.2209 258.297 76.1858 258.297 76.1858C258.777 74.2633 261.615 70.88 261.615 70.88C261.615 70.88 267.262 68.3576 270.129 68.3576C272.235 68.3576 273.597 78.8336 273.597 80.8297C273.597 92.1725 273.141 104.409 276.61 115.163C277.917 119.214 277.381 118.024 277.381 114.532V106.895V89.9385C277.381 78.6264 278.011 67.3805 278.011 56.0957C278.011 51.0146 277.481 43.1331 284.317 43.1331C285.754 43.1331 289.289 42.4045 290.483 43.2733C292.327 44.6143 292.821 45.5535 294.127 47.2321C298.416 52.7473 300.713 60.661 300.713 67.5868V128.546C300.713 135.153 301.127 141.892 300.223 148.445C299.359 154.709 297.999 160.545 296.614 166.698C294.541 175.911 290.513 186.127 282.916 192.238C274.396 199.091 264.522 203.89 255.94 210.595C250.811 214.603 240.175 219.797 240.175 227.131Z" stroke="#5B5B5B" stroke-width="11" stroke-linecap="round"/>
<path d="M229.297 190.686C237.743 176.952 249.624 169.411 261.235 158.175C262.999 156.469 264.944 155.084 266.773 153.477C268.539 151.925 270.777 150.754 272.404 149.091C275.34 146.088 275.297 142.588 275.297 138.669C275.297 135.523 274.557 131.175 270.755 130.736C267.759 130.39 265.162 131.881 262.837 133.614C259.475 136.12 256.014 138.786 252.929 141.625C249.366 144.902 242.797 151.686 242.797 151.686L223.297 162.686" stroke="#5B5B5B" stroke-width="11" stroke-linecap="round"/>
</svg>
