<svg width="286" height="245" viewBox="0 0 286 245" fill="none" xmlns="http://www.w3.org/2000/svg">
<path d="M226.267 237.292C226.284 233.067 226.203 227.352 225.819 221.205C225.428 214.956 224.715 208.107 223.421 201.864C222.169 195.826 220.209 189.487 216.832 184.923C213.077 179.849 207.563 177.257 202.355 175.944C197.125 174.625 191.532 174.418 186.632 174.632C183.124 174.785 179.809 175.162 177 175.581V124.251C177.573 124.184 178.186 124.119 178.838 124.058C183.6 123.611 190.358 123.386 198.219 124.294C213.906 126.105 233.855 132.395 251.355 150.385C268.748 168.265 275.329 191.232 277.448 210.234C278.502 219.686 278.431 227.993 278.097 233.923C278.028 235.155 277.947 236.281 277.863 237.292H226.267ZM171.61 125.11C171.61 125.11 171.611 125.11 171.613 125.109L171.612 125.11L171.61 125.11Z" stroke="#5B5B5B" stroke-width="14"/>
<rect x="41" y="126" width="39" height="49" stroke="#5B5B5B" stroke-width="14"/>
<circle cx="200.037" cy="34.0366" r="17.0366" stroke="#5B5B5B" stroke-width="14"/>
<circle cx="57.0366" cy="34.0366" r="17.0366" stroke="#5B5B5B" stroke-width="14"/>
<rect x="6" y="83.6191" width="22.338" height="133.805" rx="10" stroke="#5B5B5B" stroke-width="12"/>
<rect x="116.5" y="64.5" width="25" height="35" stroke="#5B5B5B" stroke-width="9"/>
<rect x="116" y="4" width="26" height="16" stroke="#5B5B5B" stroke-width="8"/>
<rect x="79.5" y="26.5" width="97" height="18" stroke="#5B5B5B" stroke-width="9"/>
<circle cx="128.88" cy="150.521" r="45.8278" stroke="#5B5B5B" stroke-width="14"/>
</svg>
