<svg width="15" height="17" viewBox="0 0 15 17" fill="none" xmlns="http://www.w3.org/2000/svg">
<path d="M0.5 4C0.5 2.067 2.067 0.5 4 0.5H9.22222C11.1552 0.5 12.7222 2.067 12.7222 4V8.682C12.7222 9.08774 12.3933 9.41667 11.9876 9.41667H11.0097C10.0422 9.41667 9.46515 10.4949 10.0018 11.3C10.0494 11.3714 10.0492 11.4205 10.0429 11.4523C10.0348 11.4928 10.0083 11.541 9.95996 11.5806C9.91162 11.6203 9.85913 11.6368 9.8179 11.6368C9.78541 11.6367 9.73723 11.6273 9.67652 11.5666L7.95208 9.84219C7.67962 9.56973 7.31008 9.41667 6.92477 9.41667H4C2.067 9.41667 0.5 7.84966 0.5 5.91667V4Z" stroke="#FFAF83"/>
</svg>
